<svg width="20" height="20" viewBox="0 0 20 20" fill="none" xmlns="http://www.w3.org/2000/svg">
<path d="M16.2516 17.1074H4.27664C4.04974 17.1074 3.83214 17.1975 3.67171 17.358C3.51127 17.5184 3.42114 17.736 3.42114 17.9629C3.42114 18.1898 3.51127 18.4074 3.67171 18.5678C3.83214 18.7283 4.04974 18.8184 4.27664 18.8184H16.2516C16.4785 18.8184 16.6961 18.7283 16.8566 18.5678C17.017 18.4074 17.1071 18.1898 17.1071 17.9629C17.1071 17.736 17.017 17.5184 16.8566 17.358C16.6961 17.1975 16.4785 17.1074 16.2516 17.1074ZM4.27664 15.3974H4.35364L7.92164 15.0714C8.31242 15.0323 8.67787 14.86 8.95664 14.5834L16.6566 6.88341C16.9555 6.56777 17.117 6.14653 17.1057 5.71201C17.0945 5.27749 16.9114 4.86516 16.5966 4.56541L14.2506 2.22441C13.9448 1.9372 13.544 1.7724 13.1246 1.76134C12.7051 1.75028 12.2962 1.89372 11.9756 2.16441L4.27564 9.86441C3.99875 10.1441 3.82676 10.5107 3.78864 10.9024L3.42164 14.4644C3.4106 14.5831 3.42454 14.7027 3.46256 14.8156C3.50059 14.9286 3.56185 15.0323 3.6424 15.1201C3.72295 15.2079 3.82101 15.2778 3.93025 15.3254C4.03948 15.373 4.15748 15.3982 4.27664 15.3974ZM13.0616 3.42141L15.3966 5.75641L13.6856 7.42441L11.3936 5.13241L13.0616 3.42141ZM5.44864 11.0434L10.2646 6.26141L12.5746 8.57141L7.78464 13.3614L5.22164 13.6024L5.44864 11.0434Z" fill="#FF9C07"/>
</svg>
